<svg width="919" height="780" viewBox="0 0 919 780" fill="none" xmlns="http://www.w3.org/2000/svg">
<circle cx="396.5" cy="655.5" r="57.5" fill="#211B5D"/>
<circle cx="648.5" cy="560.5" r="57.5" fill="#211B5D"/>
<circle cx="385.5" cy="409.5" r="57.5" fill="#211B5D"/>
<circle cx="95.5" cy="467.5" r="57.5" fill="#211B5D"/>
<circle cx="590.5" cy="275.5" r="57.5" fill="#211B5D"/>
<circle cx="294.5" cy="279.5" r="17.5" fill="#211B5D"/>
<circle cx="559.5" cy="425.5" r="17.5" fill="#211B5D"/>
<circle cx="798.5" cy="342.5" r="17.5" fill="#211B5D"/>
<circle cx="833.5" cy="635.5" r="17.5" fill="#211B5D"/>
<circle cx="240.5" cy="443.5" r="17.5" fill="#211B5D"/>
<circle cx="897" cy="352" r="22" fill="#211B5D"/>
<circle cx="708" cy="714" r="22" fill="#211B5D"/>
<circle cx="243.5" cy="580.5" r="17.5" fill="#211B5D"/>
<circle cx="403.5" cy="762.5" r="17.5" fill="#211B5D"/>
<circle cx="205.5" cy="673.5" r="17.5" fill="#211B5D"/>
<circle cx="78.5" cy="314.5" r="17.5" fill="#211B5D"/>
<circle cx="412.5" cy="217.5" r="17.5" fill="#211B5D"/>
<circle cx="705.5" cy="280.5" r="10.5" fill="#211B5D"/>
<circle cx="440.5" cy="304.5" r="10.5" fill="#211B5D"/>
<circle cx="806.5" cy="460.5" r="10.5" fill="#211B5D"/>
<circle cx="543.5" cy="666.5" r="10.5" fill="#211B5D"/>
<circle cx="786.5" cy="199.5" r="10.5" fill="#211B5D"/>
<circle cx="192.5" cy="325.5" r="10.5" fill="#211B5D"/>
<circle cx="123.5" cy="600.5" r="10.5" fill="#211B5D"/>
<line x1="301.74" y1="286.014" x2="356.74" y2="383.014" stroke="#211B5D" stroke-width="4"/>
<line x1="414.967" y1="218.364" x2="387.967" y2="364.364" stroke="#211B5D" stroke-width="4"/>
<line x1="438.96" y1="92.3986" x2="414.96" y2="210.399" stroke="#211B5D" stroke-width="4"/>
<line x1="438.798" y1="305.877" x2="398.798" y2="387.877" stroke="#211B5D" stroke-width="4"/>
<line x1="388" y1="450" x2="388" y2="618" stroke="#211B5D" stroke-width="4"/>
<line x1="396.703" y1="433.951" x2="537.703" y2="662.951" stroke="#211B5D" stroke-width="4"/>
<line x1="242.823" y1="586.822" x2="201.823" y2="677.822" stroke="#211B5D" stroke-width="4"/>
<line x1="550.514" y1="277.933" x2="441.514" y2="306.933" stroke="#211B5D" stroke-width="4"/>
<line x1="557.108" y1="429.997" x2="427.108" y2="436.997" stroke="#211B5D" stroke-width="4"/>
<line x1="686.482" y1="386.941" x2="557.482" y2="418.941" stroke="#211B5D" stroke-width="4"/>
<line x1="700.378" y1="277.964" x2="622.378" y2="292.964" stroke="#211B5D" stroke-width="4"/>
<line x1="782.771" y1="200.929" x2="687.771" y2="381.929" stroke="#211B5D" stroke-width="4"/>
<line x1="413.508" y1="223.065" x2="554.508" y2="260.065" stroke="#211B5D" stroke-width="4"/>
<line x1="592.921" y1="305.558" x2="558.921" y2="422.558" stroke="#211B5D" stroke-width="4"/>
<line x1="794.71" y1="347.87" x2="686.71" y2="388.87" stroke="#211B5D" stroke-width="4"/>
<line x1="890.637" y1="361.967" x2="798.637" y2="344.967" stroke="#211B5D" stroke-width="4"/>
<line x1="892.538" y1="361.279" x2="808.538" y2="462.279" stroke="#211B5D" stroke-width="4"/>
<line x1="701.982" y1="281.267" x2="687.982" y2="385.267" stroke="#211B5D" stroke-width="4"/>
<line x1="564.74" y1="427.014" x2="619.74" y2="524.014" stroke="#211B5D" stroke-width="4"/>
<line x1="707.649" y1="80.8681" x2="788.649" y2="198.868" stroke="#211B5D" stroke-width="4"/>
<line x1="825.15" y1="637.637" x2="704.15" y2="722.637" stroke="#211B5D" stroke-width="4"/>
<line x1="800.15" y1="462.637" x2="679.15" y2="547.637" stroke="#211B5D" stroke-width="4"/>
<line x1="808.973" y1="467.675" x2="835.973" y2="631.675" stroke="#211B5D" stroke-width="4"/>
<line x1="782.989" y1="199.793" x2="808.989" y2="449.793" stroke="#211B5D" stroke-width="4"/>
<line x1="694.996" y1="80.8696" x2="707.996" y2="279.87" stroke="#211B5D" stroke-width="4"/>
<path d="M790 202L898.634 344.847" stroke="#211B5D" stroke-width="4"/>
<line x1="687.954" y1="387.427" x2="649.954" y2="561.427" stroke="#211B5D" stroke-width="4"/>
<path d="M437 82L548 256" stroke="#211B5D" stroke-width="4"/>
<path d="M659 82L601 256" stroke="#211B5D" stroke-width="4"/>
<line x1="257.942" y1="579.001" x2="600.942" y2="569.001" stroke="#211B5D" stroke-width="4"/>
<line x1="77.4292" y1="316.762" x2="170.429" y2="198.762" stroke="#211B5D" stroke-width="4"/>
<line x1="91.016" y1="436.253" x2="77.016" y2="326.253" stroke="#211B5D" stroke-width="4"/>
<line x1="239.15" y1="443.759" x2="191.15" y2="326.759" stroke="#211B5D" stroke-width="4"/>
<line x1="118.016" y1="601.253" x2="104.016" y2="491.253" stroke="#211B5D" stroke-width="4"/>
<line x1="246.001" y1="576.061" x2="241.971" y2="443.061" stroke="#211B5D" stroke-width="4"/>
<line x1="401.031" y1="769.058" x2="398.001" y2="667.059" stroke="#211B5D" stroke-width="4"/>
<line x1="699.536" y1="705.945" x2="544.536" y2="668.945" stroke="#211B5D" stroke-width="4"/>
<line x1="194.548" y1="675.375" x2="122.548" y2="599.375" stroke="#211B5D" stroke-width="4"/>
<line x1="396.179" y1="764.824" x2="205.179" y2="678.824" stroke="#211B5D" stroke-width="4"/>
<line x1="543.101" y1="668.67" x2="402.101" y2="761.67" stroke="#211B5D" stroke-width="4"/>
<line x1="687.101" y1="572.67" x2="546.101" y2="665.67" stroke="#211B5D" stroke-width="4"/>
<line x1="898.95" y1="360.445" x2="835.95" y2="636.445" stroke="#211B5D" stroke-width="4"/>
<line x1="700.285" y1="721.98" x2="401.285" y2="764.98" stroke="#211B5D" stroke-width="4"/>
<line x1="412.549" y1="211.948" x2="222.549" y2="167.948" stroke="#211B5D" stroke-width="4"/>
<line x1="437.516" y1="83.9323" x2="216.516" y2="142.932" stroke="#211B5D" stroke-width="4"/>
<line x1="630.221" y1="62.9878" x2="441.221" y2="83.9878" stroke="#211B5D" stroke-width="4"/>
<line x1="192.01" y1="321.804" x2="204.01" y2="199.804" stroke="#211B5D" stroke-width="4"/>
<line x1="242.099" y1="442.379" x2="293.099" y2="286.379" stroke="#211B5D" stroke-width="4"/>
<line x1="293.499" y1="277.322" x2="204.499" y2="176.322" stroke="#211B5D" stroke-width="4"/>
<line x1="111.377" y1="441.831" x2="191.377" y2="330.831" stroke="#211B5D" stroke-width="4"/>
<line x1="242.434" y1="577.756" x2="362.434" y2="426.756" stroke="#211B5D" stroke-width="4"/>
<circle cx="118.5" cy="28.5" r="10.5" fill="#211B5D"/>
<path d="M21.5 417C21.5 422.799 16.799 427.5 11 427.5C5.20101 427.5 0.5 422.799 0.5 417C0.5 411.201 5.20101 406.5 11 406.5C16.799 406.5 21.5 411.201 21.5 417Z" fill="#211B5D"/>
<circle cx="439.5" cy="83.5" r="17.5" fill="#211B5D"/>
<circle cx="186.5" cy="158.5" r="57.5" fill="#211B5D"/>
<circle cx="675.5" cy="57.5" r="57.5" fill="#211B5D"/>
<line x1="120.74" y1="28.0135" x2="175.74" y2="125.014" stroke="#211B5D" stroke-width="4"/>
<line x1="12.293" y1="415.474" x2="71.293" y2="465.474" stroke="#211B5D" stroke-width="4"/>
<line x1="244.966" y1="586.249" x2="360.966" y2="650.249" stroke="#211B5D" stroke-width="4"/>
</svg>
