<svg width="293" height="330" viewBox="0 0 293 330" fill="none" xmlns="http://www.w3.org/2000/svg">
<circle cx="146.5" cy="183.5" r="146.5" fill="#6C61E1"/>
<path d="M232.824 195.725C236.735 217.175 233.962 235.522 224.506 250.765C215.111 265.892 199.746 276.717 178.408 283.24C155.277 290.312 134.184 287.693 115.127 275.383C96.1598 263.045 82.4277 242.98 73.9307 215.188L68.1746 196.36C62.6104 178.161 60.9453 161.171 63.1792 145.391C65.5028 129.583 71.5028 116.181 81.1791 105.184C90.828 94.0969 103.497 86.1552 119.186 81.3585C139.986 74.9994 158.443 75.7286 174.558 83.5462C190.645 91.2742 202.859 105.088 211.198 124.988L185.243 132.924C178.232 118.009 169.892 108.207 160.224 103.516C150.644 98.7981 139.131 98.4949 125.683 102.606C109.186 107.65 98.0953 117.707 92.4094 132.778C86.8132 147.821 87.455 166.595 94.3349 189.098L100.132 208.059C106.628 229.307 116.233 244.85 128.946 254.688C141.659 264.526 155.995 267.006 171.953 262.127C186.298 257.741 196.293 251.156 201.94 242.371C207.65 233.469 209.293 220.565 206.869 203.66L232.824 195.725Z" fill="white"/>
<line x1="137.998" y1="83.5151" x2="128.35" y2="51.9571" stroke="white" stroke-width="15"/>
<line x1="101.659" y1="94.6253" x2="92.0106" y2="63.0672" stroke="white" stroke-width="15"/>
<line x1="162.74" y1="308.094" x2="153.092" y2="276.536" stroke="white" stroke-width="15"/>
<line x1="202.905" y1="295.815" x2="193.257" y2="264.257" stroke="white" stroke-width="15"/>
</svg>
